<?xml version="1.0" standalone="no"?>
<!DOCTYPE svg PUBLIC "-//W3C//DTD SVG 20010904//EN"
 "http://www.w3.org/TR/2001/REC-SVG-20010904/DTD/svg10.dtd">
<svg version="1.0" xmlns="http://www.w3.org/2000/svg"
 width="500.000000pt" height="500.000000pt" viewBox="0 0 500.000000 500.000000"
 preserveAspectRatio="xMidYMid meet">
<metadata>
Created by potrace 1.11, written by Peter Selinger 2001-2013
</metadata>
<g transform="translate(0.000000,500.000000) scale(0.100000,-0.100000)"
fill="#000000" stroke="none">
<path d="M0 2500 l0 -2500 2500 0 2500 0 0 2500 0 2500 -2500 0 -2500 0 0
-2500z m2330 1630 l0 -370 -540 0 -540 0 0 -505 0 -505 -375 0 -375 0 0 875 0
875 915 0 915 0 0 -370z m2170 -545 l0 -915 -370 0 -370 0 0 540 0 540 -505 0
-505 0 0 375 0 375 875 0 875 0 0 -915z m-1300 -480 l0 -245 -485 0 -485 0 0
-282 0 -283 71 -77 71 -78 414 0 414 0 0 -245 0 -245 -512 0 -513 1 -237 243
-238 244 0 606 0 606 750 0 750 0 0 -245z m-1960 -1315 l0 -540 505 0 505 0 0
-375 0 -375 -875 0 -875 0 0 915 0 915 370 0 370 0 0 -540z m3260 -415 l0
-875 -915 0 -915 0 0 370 0 370 540 0 540 0 0 505 0 505 375 0 375 0 0 -875z"/>
</g>
</svg>
